<svg width="139" height="12" viewBox="0 0 139 12" fill="none" xmlns="http://www.w3.org/2000/svg">
<path d="M5.34253 1.8877C4.7911 1.8877 4.29435 1.9834 3.85229 2.1748C3.41479 2.36165 3.0411 2.63509 2.7312 2.99512C2.42586 3.35059 2.19116 3.78125 2.0271 4.28711C1.86304 4.79297 1.78101 5.36263 1.78101 5.99609C1.78101 6.83464 1.91089 7.5638 2.17065 8.18359C2.43498 8.79883 2.8269 9.27507 3.34644 9.6123C3.87052 9.94954 4.5245 10.1182 5.30835 10.1182C5.75496 10.1182 6.17423 10.0817 6.56616 10.0088C6.96265 9.93132 7.34774 9.83561 7.72144 9.72168V10.7334C7.35685 10.8701 6.97404 10.9704 6.573 11.0342C6.17196 11.1025 5.69572 11.1367 5.14429 11.1367C4.12801 11.1367 3.27808 10.9271 2.59448 10.5078C1.91545 10.084 1.40503 9.48698 1.06323 8.7168C0.725993 7.94661 0.557373 7.03744 0.557373 5.98926C0.557373 5.23275 0.662191 4.54232 0.871826 3.91797C1.08602 3.28906 1.39591 2.74674 1.80151 2.29102C2.21167 1.83529 2.71297 1.48438 3.30542 1.23828C3.90243 0.98763 4.58602 0.862305 5.3562 0.862305C5.86206 0.862305 6.34969 0.912435 6.81909 1.0127C7.28849 1.11296 7.71232 1.25651 8.09058 1.44336L7.62573 2.42773C7.30672 2.2819 6.95581 2.15658 6.573 2.05176C6.19474 1.94238 5.78459 1.8877 5.34253 1.8877Z" fill="#222426"/>
<path d="M17.7426 11H16.5805V6.29004H11.3305V11H10.1684V1.00586H11.3305V5.26465H16.5805V1.00586H17.7426V11Z" fill="#222426"/>
<path d="M26.3351 11H20.7707V1.00586H26.3351V2.03125H21.9328V5.26465H26.0822V6.27637H21.9328V9.97461H26.3351V11Z" fill="#222426"/>
<path d="M33.1025 1.8877C32.551 1.8877 32.0543 1.9834 31.6122 2.1748C31.1747 2.36165 30.801 2.63509 30.4911 2.99512C30.1858 3.35059 29.9511 3.78125 29.787 4.28711C29.623 4.79297 29.5409 5.36263 29.5409 5.99609C29.5409 6.83464 29.6708 7.5638 29.9306 8.18359C30.1949 8.79883 30.5868 9.27507 31.1064 9.6123C31.6304 9.94954 32.2844 10.1182 33.0683 10.1182C33.5149 10.1182 33.9342 10.0817 34.3261 10.0088C34.7226 9.93132 35.1077 9.83561 35.4814 9.72168V10.7334C35.1168 10.8701 34.734 10.9704 34.3329 11.0342C33.9319 11.1025 33.4556 11.1367 32.9042 11.1367C31.8879 11.1367 31.038 10.9271 30.3544 10.5078C29.6754 10.084 29.165 9.48698 28.8232 8.7168C28.4859 7.94661 28.3173 7.03744 28.3173 5.98926C28.3173 5.23275 28.4221 4.54232 28.6317 3.91797C28.8459 3.28906 29.1558 2.74674 29.5614 2.29102C29.9716 1.83529 30.4729 1.48438 31.0653 1.23828C31.6623 0.98763 32.3459 0.862305 33.1161 0.862305C33.622 0.862305 34.1096 0.912435 34.579 1.0127C35.0484 1.11296 35.4722 1.25651 35.8505 1.44336L35.3857 2.42773C35.0666 2.2819 34.7157 2.15658 34.3329 2.05176C33.9547 1.94238 33.5445 1.8877 33.1025 1.8877Z" fill="#222426"/>
<path d="M45.1334 11H43.7594L40.1569 6.13965L39.0905 7.09668V11H37.9283V1.00586H39.0905V5.98926C39.3502 5.69303 39.6168 5.39909 39.8903 5.10742C40.1637 4.8112 40.4349 4.5127 40.7037 4.21191L43.6227 1.00586H44.983L41.0045 5.33984L45.1334 11Z" fill="#222426"/>
<path d="M56.9659 11L55.7354 7.82812H51.7296L50.5059 11H49.3301L53.2403 0.964844H54.2862L58.169 11H56.9659ZM55.3868 6.7959L54.2178 3.64453C54.1905 3.5625 54.1449 3.42806 54.0811 3.24121C54.0219 3.05436 53.9604 2.86068 53.8966 2.66016C53.8328 2.45964 53.7803 2.29785 53.7393 2.1748C53.6938 2.36165 53.6436 2.5485 53.5889 2.73535C53.5388 2.91764 53.4887 3.08854 53.4385 3.24805C53.3884 3.40299 53.3451 3.53516 53.3087 3.64453L52.1192 6.7959H55.3868Z" fill="#222426"/>
<path d="M66.8162 1.00586L63.2273 11H62.0584L58.4695 1.00586H59.6863L62.0242 7.58887C62.1199 7.85319 62.2042 8.10612 62.2771 8.34766C62.3546 8.58919 62.423 8.82161 62.4822 9.04492C62.5415 9.26823 62.5939 9.4847 62.6394 9.69434C62.685 9.4847 62.7374 9.26823 62.7967 9.04492C62.8559 8.81706 62.9243 8.58236 63.0017 8.34082C63.0792 8.09473 63.1658 7.83724 63.2615 7.56836L65.5857 1.00586H66.8162Z" fill="#222426"/>
<path d="M74.7388 11L73.5083 7.82812H69.5024L68.2788 11H67.103L71.0132 0.964844H72.0591L75.9419 11H74.7388ZM73.1597 6.7959L71.9907 3.64453C71.9634 3.5625 71.9178 3.42806 71.854 3.24121C71.7948 3.05436 71.7332 2.86068 71.6694 2.66016C71.6056 2.45964 71.5532 2.29785 71.5122 2.1748C71.4666 2.36165 71.4165 2.5485 71.3618 2.73535C71.3117 2.91764 71.2616 3.08854 71.2114 3.24805C71.1613 3.40299 71.118 3.53516 71.0816 3.64453L69.8921 6.7959H73.1597Z" fill="#222426"/>
<path d="M77.6096 11V1.00586H78.7717V11H77.6096Z" fill="#222426"/>
<path d="M81.7998 11V1.00586H82.9619V9.96094H87.3984V11H81.7998Z" fill="#222426"/>
<path d="M95.6628 11L94.4323 7.82812H90.4264L89.2028 11H88.027L91.9372 0.964844H92.9831L96.8659 11H95.6628ZM94.0837 6.7959L92.9147 3.64453C92.8874 3.5625 92.8418 3.42806 92.778 3.24121C92.7188 3.05436 92.6572 2.86068 92.5934 2.66016C92.5296 2.45964 92.4772 2.29785 92.4362 2.1748C92.3906 2.36165 92.3405 2.5485 92.2858 2.73535C92.2357 2.91764 92.1856 3.08854 92.1354 3.24805C92.0853 3.40299 92.042 3.53516 92.0055 3.64453L90.8161 6.7959H94.0837Z" fill="#222426"/>
<path d="M98.5336 1.00586H101.364C102.612 1.00586 103.551 1.19271 104.18 1.56641C104.809 1.9401 105.123 2.57585 105.123 3.47363C105.123 3.861 105.048 4.20964 104.898 4.51953C104.752 4.82487 104.538 5.0778 104.255 5.27832C103.973 5.47884 103.624 5.61784 103.209 5.69531V5.76367C103.647 5.83203 104.034 5.95736 104.371 6.13965C104.709 6.32194 104.973 6.57715 105.164 6.90527C105.356 7.2334 105.452 7.65039 105.452 8.15625C105.452 8.77148 105.308 9.29102 105.021 9.71484C104.738 10.1387 104.337 10.46 103.818 10.6787C103.298 10.8929 102.683 11 101.972 11H98.5336V1.00586ZM99.6957 5.29199H101.61C102.48 5.29199 103.082 5.14844 103.414 4.86133C103.752 4.57422 103.92 4.15495 103.92 3.60352C103.92 3.03385 103.72 2.6237 103.319 2.37305C102.922 2.1224 102.289 1.99707 101.418 1.99707H99.6957V5.29199ZM99.6957 6.26953V10.0088H101.774C102.662 10.0088 103.291 9.83561 103.661 9.48926C104.03 9.13835 104.214 8.66667 104.214 8.07422C104.214 7.69596 104.13 7.3724 103.961 7.10352C103.797 6.83464 103.528 6.62956 103.155 6.48828C102.786 6.34245 102.291 6.26953 101.671 6.26953H99.6957Z" fill="#222426"/>
<path d="M107.864 11V1.00586H109.026V11H107.864Z" fill="#222426"/>
<path d="M112.055 11V1.00586H113.217V9.96094H117.653V11H112.055Z" fill="#222426"/>
<path d="M119.649 11V1.00586H120.811V11H119.649Z" fill="#222426"/>
<path d="M126.908 11H125.74V2.03125H122.595V1.00586H130.039V2.03125H126.908V11Z" fill="#222426"/>
<path d="M134.38 6.0166L137.039 1.00586H138.29L134.961 7.12402V11H133.799V7.17871L130.463 1.00586H131.734L134.38 6.0166Z" fill="#222426"/>
</svg>
